<svg version="1.1" id="Layer_1" xmlns="http://www.w3.org/2000/svg" x="0px" y="0px" viewBox="0 0 394 100" style="enable-background:new 0 0 394 100;" xmlns:xlink="http://www.w3.org/1999/xlink" xml:space="preserve">
<style type="text/css">
	.st88{fill:#F0002F;}
</style>
<g>
	<g>
		<path class="st88" d="M51.4,0c0.8,0.2,1.7,0.4,2.5,0.6c11,2.5,18.9,12,19.4,23.3c0.1,1.7,0.1,3.5,0,5.2c0,0.7-0.3,1.6-0.7,2.2
			c-2.4,2.6-2.1,4.8,0.9,6.5c3,1.7,4.6,4.4,4.6,7.8c0,3.6-1.6,6.2-4.7,8c-2.6,1.5-2.9,4.2-0.9,6.3c0.5,0.5,0.8,1.4,0.9,2.1
			c0.7,8.6-1.3,12.1-9.1,15.7c-16.7,0-33.4,0-50.1,0c-5-1.9-8.6-5-9-10.7c-0.1-1.5-0.2-3,0-4.5c0.2-1,0.8-2.1,1.5-2.9
			c1-1.1,1.2-4.8,0-5.2c-3.3-1.2-5-3.7-6.3-6.7c0-1.3,0-2.5,0-3.8c1.1-2.4,2.2-4.7,4.7-6.1c3.1-1.6,3.3-3.9,0.9-6.4
			c-0.5-0.5-0.7-1.4-0.8-2.1c-0.1-1.7-0.1-3.3,0-5C5.5,13.1,13.1,3.7,23.9,0.9C24.9,0.6,26,0.3,27.1,0C35.2,0,43.3,0,51.4,0z
			 M68.8,27.6c1.3-12.1-7.7-22.7-19.6-23c-6.4-0.2-12.7-0.1-19.1,0c-11.3,0.1-20.1,8.7-20.6,20c-0.1,3.1-0.1,3.1,2.9,3.1
			c17.9,0,35.7,0,53.6,0C66.9,27.6,67.8,27.6,68.8,27.6z M68.7,63.9c-2.4,0-4.7,0.1-7,0c-1.5-0.1-2.4,0.4-3.3,1.7
			c-2.7,3.9-8.2,3.9-10.9,0c-0.9-1.3-1.8-1.7-3.3-1.7c-10.7,0.1-21.4,0-32.2,0c-0.8,0-1.5,0.1-2.2,0.1c-0.9,5.6,2,9.2,7.3,9.2
			c14.8,0,29.5,0,44.3,0C66.7,73.2,69.6,69.6,68.7,63.9z M12,36.7c4.2,0,8.2,0,12.2,0c1.9,0,3.4,0.3,3.8,2.6
			c0.1,0.7,1.4,1.8,2.1,1.7c0.8-0.1,2.1-1,2.2-1.8c0.5-2,1.5-2.5,3.4-2.5c3.8,0.1,7.6,0,11.4,0c3,0,3.5,0.5,3.5,3.5
			c0,6.7,0,13.5,0,20.2c0,1.7,0.2,3.5,2.3,3.5c2.3,0,2.4-1.8,2.4-3.6c0-6.7,0-13.5,0-20.2c0-2.8,0.5-3.4,3.3-3.4c2.7,0,5.3,0,7.9,0
			c0-1.8,0-3.2,0-4.6c-18.3,0-36.3,0-54.5,0C12,33.6,12,34.9,12,36.7z M46,41.1c-2.9,0-5.7-0.1-8.4,0.1c-0.5,0-1.2,0.6-1.6,1.1
			c-3.3,4.6-8.5,4.6-11.8,0c-0.4-0.5-1.2-1.1-1.8-1.1c-4.3-0.1-8.6-0.2-12.9,0c-3.5,0.1-5.6,3.4-4.3,6.3c0.9,2,2.6,2.9,4.8,2.9
			c11.4,0,22.7,0,34.1,0c0.6,0,1.2-0.1,1.9-0.2C46,47.2,46,44.3,46,41.1z M46.1,55c-11.5,0-22.8,0-34.1,0c0,1.5,0,2.8,0,4.3
			c11.4,0,22.7,0,34.1,0C46.1,57.8,46.1,56.5,46.1,55z M59.9,50.3c3.3,0,6.3,0.1,9.3,0c2.5-0.1,4.4-2.1,4.5-4.4
			c0.1-2.2-1.6-4.5-3.9-4.7c-3.2-0.2-6.4-0.1-9.8-0.1C59.9,44.2,59.9,47.1,59.9,50.3z M66.6,59.3c0-1.5,0-2.9,0-4.4
			c-2.3,0-4.5,0-6.7,0c0,1.6,0,2.9,0,4.4C62.3,59.3,64.4,59.3,66.6,59.3z"></path>
		<path class="st88" d="M58.1,13.6c0.5,0.9,1.5,1.8,1.5,2.7c-0.1,0.7-1.4,1.8-2.1,1.8c-0.7,0-2-1.2-2-1.9c0-0.9,1-1.7,1.6-2.6
			C57.4,13.5,57.7,13.6,58.1,13.6z"></path>
		<path class="st88" d="M33.3,11.5c-1.5,1.1-2.4,2.2-3,2.1c-0.9-0.2-2-1.2-2.1-2.1c-0.1-0.6,1.2-2,1.9-2
			C30.9,9.4,31.8,10.5,33.3,11.5z"></path>
		<path class="st88" d="M51.4,11.5c-1.3,1-2.2,2.1-2.9,2c-0.9-0.2-1.6-1.3-2.3-2c0.8-0.7,1.5-1.9,2.3-2C49.2,9.4,50.1,10.5,51.4,11.5
			z"></path>
		<path class="st88" d="M24.2,16c-1.5,1.1-2.3,2.2-3,2.1c-0.9-0.1-1.6-1.3-2.3-2c0.7-0.7,1.3-2,2.1-2.1C21.7,14,22.7,15,24.2,16z"></path>
		<path class="st88" d="M39.8,13.5c0.5,0.9,1.5,1.8,1.5,2.7c-0.1,0.7-1.3,1.9-2.1,1.9c-0.7,0-2-1.2-2-1.9c0-0.9,1-1.7,1.6-2.6
			C39.1,13.5,39.5,13.5,39.8,13.5z"></path>
	</g>
	<g>
		<g>
			<path class="st88" d="M133.9,16.2c-5,0-10.2-0.2-15.2-1.3c0.1,0.6,0.1,1.3,0.1,1.9c0,6.5-1.8,13.5-3,19.9c1.7,0.2,3.3,0.3,5,0.3
				c5.2,0,11.3-0.6,16.2-2.3c0.3,1.1,0.5,2.3,0.5,3.5c0,5.6-4.3,7.3-9.3,7.3c-4.5,0-9.2-0.6-13.6-1.5c-1.7,7.4-3.1,16.8-3.1,24.7
				c0,2.6,0.1,5.1,0.4,7.6c-1.7,0.4-3.3,0.6-5.1,0.6c-7.2,0-11-2.3-11-9.9c0-5.1,1.7-11,2.6-16c2.1-10.7,4.7-24.1,4.7-34.9
				c0-3.5-0.4-6.6-1.3-9.9c2.2-0.6,4.2-1,6.5-1c3.1,0,5.6,0.4,7.9,2.6c0.9,0.1,1.9,0.1,2.8,0.1c8.3,0,16.2-0.4,24.3-2.5
				c0.1,0.9,0.1,2,0.1,2.9C143.5,14.8,139.8,16.2,133.9,16.2z"></path>
			<path class="st88" d="M162,77.4c-12.8,0-20.1-7.3-20.1-20.1c0-15.8,9-28.2,25.6-28.2c12.8,0,19.8,6.8,19.8,19.7
				C187.3,64.4,178.9,77.4,162,77.4z M166.8,36.3c-8.5,0-11.1,17.6-11.1,23.9c0,4.2,1.3,10.1,6.6,10.1c8.8,0,11.5-17.4,11.5-23.6
				C173.8,42.3,172.4,36.3,166.8,36.3z"></path>
			<path class="st88" d="M215.7,77.4c-12.8,0-20.1-7.3-20.1-20.1c0-15.8,9-28.2,25.6-28.2c12.8,0,19.8,6.8,19.8,19.7
				C241,64.4,232.5,77.4,215.7,77.4z M220.4,36.3c-8.5,0-11.1,17.6-11.1,23.9c0,4.2,1.3,10.1,6.6,10.1c8.8,0,11.5-17.4,11.5-23.6
				C227.4,42.3,226,36.3,220.4,36.3z"></path>
			<path class="st88" d="M294,39.4c-1.9,8.3-3.8,16.8-3.8,25.3c0,4.5,0.1,6.5,2.2,10.5c-2.3,0.7-4.9,1.8-7.4,1.8
				c-4.7,0-8.3-2.3-8.4-7.3c-4.1,4.6-7.9,7.4-14.2,7.4c-9.4,0-13.8-6.7-13.8-15.5c0-13.7,8.4-32.2,24.3-32.2c4.1,0,5.9,0.7,9.1,3.1
				c0.9-4.6,1.5-9.1,1.5-13.8c0-5.9,0-9.2-2.1-14.6c2.1-0.7,4.2-1.4,6.5-1.4c7.5,0,10.7,4.7,10.7,11.8
				C298.5,22.6,295.8,31.4,294,39.4z M275.7,36.8c-9.2,0-13,17-13,24c0,3.5,0.9,7.3,5.1,7.3c8.8,0,10.9-15.4,11.9-21.4
				c0.3-1.8,0.7-3.8,0.7-5.5C280.5,38.6,278.2,36.8,275.7,36.8z"></path>
			<path class="st88" d="M337.3,42.4c-1.6-1.4-2.8-2-4.9-2c-12,0-15.3,22.6-15.3,31.1c0,1.5,0.2,2.9,0.4,4.4
				c-2.2,0.3-4.6,0.5-6.8,0.5c-4.2,0-6.7-2.1-6.7-6.4c0-4.3,1.7-9.1,2.6-13.3c1.4-5.5,2.6-11.6,2.6-17.4c0-3.8-0.1-5.2-1.8-8.6
				c1.8-0.5,3.6-1,5.4-1c5.1,0,9.1,2.4,9.1,7.9c0,1.4-0.1,2.7-0.3,4.1c2.7-4.6,7.4-12.4,13.6-12.4c3.2,0,5,2.7,5,5.8
				C340.3,37.8,338.9,40.2,337.3,42.4z"></path>
			<path class="st88" d="M383,75.7c-5.4,13.2-14.8,24.3-30.1,24.3c-5.1,0-16.7-1.4-16.7-8.6c0-2.7,1.4-4.9,2.9-7
				c4.1,4.1,8.7,6.6,14.5,6.6c11.1,0,14.5-8.4,17.8-17.6c-3.7,2.8-6.5,4.2-11.1,4.2c-8.1,0-12.2-4.7-12.2-12.7
				c0-7.6,1.5-15.2,1.5-22.8c0-3.9-0.5-7.2-1.6-11c2.6-0.8,5.3-1.6,8.1-1.6c5.3,0,8.8,2.7,8.8,8.3c0,8.8-3,17.4-3,26.1
				c0,3,0.8,6.3,4.5,6.3c9,0,13.1-23.4,13.1-30.6c0-3.5-0.3-5.1-1.8-8.4c2.4-1.1,4.1-1.8,6.8-1.8c5.5,0,9.3,2.1,9.3,8.1
				C393.6,47.4,386.7,66.6,383,75.7z"></path>
		</g>
	</g>
</g>
</svg>